# xmcd
#
# Track frame offsets:
#	150
#	29244
#	48646
#	64024
#	88769
#	114826
#	133283
#	157350
#	182083
#	198498
#	209814
#	223439
#	250528
#	263058
#	286691
#	305536
#	320131
#
# Disc length: 4492 seconds
#
# Revision: 1
# Processed by: cddbd v1.5.2PL0 Copyright (c) Steve Scherf et al.
# Submitted via: EasyCDDAExtractor 2011.0.0.0
#
DISCID=18118a11
DTITLE=SumiJo - 101 SumiJo CD6
DYEAR=1900
DGENRE=Àå¸£ ¾øÀ½
TTITLE0=비발디 - 이 세상에 참평화 없어라 중 라르게토
TTITLE1=슈베르트 - 아베마리아
TTITLE2=포레 - 레퀘엠 중 피의 예수
TTITLE3=쿠노 - 성 체칠리아 장엄미사 중 상투스
TTITLE4=헨델 - 오 눙이여 나 그대를 찬미하리
TTITLE5=모차르트 - 베르페르 고해자의 성의만과 중 주님을 찬양하세
TTITLE6=슈베르트 - 4년간의 통신 중 신이시여 내 말을 들어보소서
TTITLE7=헨델 - 리날도 중 울게 하소서
TTITLE8=모차르트 - 고요함은 미소 짓고
TTITLE9=모차르트 - 엑슐타테 유빌라테 중 알렐루야
TTITLE10=베르디 - 별에게
TTITLE11=헨델 - 메시아 중 내 주는 살아계시니
TTITLE12=살라토레 로사 - 그대 가까이
TTITLE13=헨델 - 세멜레 중 당신이 가는 곳 마다
TTITLE14=라벨 - 헤브라이의 노래 중 카다쉬
TTITLE15=모차르트 - 친절한 은인이여 나의 감사를 받아주오
TTITLE16=아담 - 오 거룩한 밤
EXTD=
EXTT0=
EXTT1=
EXTT2=
EXTT3=
EXTT4=
EXTT5=
EXTT6=
EXTT7=
EXTT8=
EXTT9=
EXTT10=
EXTT11=
EXTT12=
EXTT13=
EXTT14=
EXTT15=
EXTT16=
PLAYORDER=
